<?xml version="1.0" encoding="UTF-8" standalone="no"?>
<!DOCTYPE svg PUBLIC "-//W3C//DTD SVG 1.1//EN" "http://www.w3.org/Graphics/SVG/1.1/DTD/svg11.dtd">
<svg width="100%" height="100%" viewBox="0 0 1200 1200" version="1.1" xmlns="http://www.w3.org/2000/svg" xmlns:xlink="http://www.w3.org/1999/xlink" xml:space="preserve" xmlns:serif="http://www.serif.com/" style="fill-rule:evenodd;clip-rule:evenodd;stroke-linejoin:round;stroke-miterlimit:1.41421;">
    <g transform="matrix(1,0,0,1,-149.135,719.567)">
        <path d="M291.535,-545.667C306.202,-548.6 331.318,-549.333 366.885,-547.867C402.452,-546.4 431.968,-543.1 455.435,-537.967C467.902,-535.767 476.152,-532.283 480.185,-527.517C484.218,-522.75 483.118,-518.717 476.885,-515.417C470.652,-512.117 461.302,-510.833 448.835,-511.567C426.835,-513.767 405.568,-510.1 385.035,-500.567C363.768,-491.767 338.468,-487 309.135,-486.267L266.235,-485.167L259.635,-449.967C255.235,-423.567 254.502,-396.8 257.435,-369.667C259.635,-344 257.252,-301.833 250.285,-243.167C243.318,-184.5 234.335,-130.967 223.335,-82.567C215.268,-49.567 209.218,1.217 205.185,69.783C201.152,138.35 202.068,176.3 207.935,183.633C212.335,191.7 259.635,190.233 349.835,179.233C353.502,178.5 365.968,178.133 387.235,178.133C398.235,178.867 405.385,180.333 408.685,182.533C411.985,184.733 412.902,188.4 411.435,193.533C409.968,200.867 401.718,206.183 386.685,209.483C371.652,212.783 326.368,218.833 250.835,227.633C198.035,233.5 168.885,233.683 163.385,228.183C157.885,222.683 158.068,195.367 163.935,146.233C166.868,127.9 169.985,84.45 173.285,15.883C176.585,-52.683 184.102,-103.1 195.835,-135.367C203.902,-155.167 208.668,-225.933 210.135,-347.667C211.602,-465.733 214.168,-529.167 217.835,-537.967C222.235,-543.833 230.302,-545.667 242.035,-543.467C255.968,-540.533 272.468,-541.267 291.535,-545.667Z" style="fill-rule:nonzero;"/>
        <path d="M545.635,-430.167C551.502,-446.3 562.502,-439.7 578.635,-410.367C583.035,-400.833 587.802,-394.783 592.935,-392.217C598.068,-389.65 607.968,-388.733 622.635,-389.467C646.835,-391.667 673.235,-388.917 701.835,-381.217C730.435,-373.517 750.235,-364.533 761.235,-354.267C786.902,-330.067 797.902,-301.467 794.235,-268.467C790.568,-235.467 773.335,-205.4 742.535,-178.267C697.068,-139.4 668.285,-115.2 656.185,-105.667C644.085,-96.133 636.202,-91.367 632.535,-91.367C625.202,-91.367 614.752,-82.75 601.185,-65.517C587.618,-48.283 579.735,-33.8 577.535,-22.067C573.135,-2.267 578.452,9.65 593.485,13.683C608.518,17.717 643.902,17.167 699.635,12.033C744.368,7.633 781.402,4.333 810.735,2.133C840.068,-0.067 863.902,-1.35 882.235,-1.717C900.568,-2.083 913.585,-1.533 921.285,-0.067C928.985,1.4 932.835,3.967 932.835,7.633C932.835,12.767 929.902,16.25 924.035,18.083C918.168,19.917 907.168,20.833 891.035,20.833C863.168,20.833 838.602,23.033 817.335,27.433C797.535,31.833 755.368,39.167 690.835,49.433L597.335,62.633L574.235,46.133C560.302,35.867 551.318,32.75 547.285,36.783C543.252,40.817 543.068,53.1 546.735,73.633C549.668,91.967 547.835,106.817 541.235,118.183C534.635,129.55 525.835,133.033 514.835,128.633C508.235,126.433 504.385,120.2 503.285,109.933C502.185,99.667 502.735,72.9 504.935,29.633C507.868,-34.9 512.268,-84.4 518.135,-118.867C536.468,-250.867 541.968,-323.833 534.635,-337.767C528.768,-348.767 529.868,-362.333 537.935,-378.467C546.735,-393.867 549.668,-404.5 546.735,-410.367C542.335,-415.5 541.968,-422.1 545.635,-430.167ZM745.835,-309.167C733.368,-340.7 708.435,-355 671.035,-352.067C651.235,-351.333 636.018,-350.05 625.385,-348.217C614.752,-346.383 606.685,-344 601.185,-341.067C595.685,-338.133 591.835,-333.733 589.635,-327.867C585.235,-317.6 579.002,-273.233 570.935,-194.767C562.868,-116.3 558.468,-75.233 557.735,-71.567C557.002,-64.967 557.002,-60.2 557.735,-57.267C557.735,-54.333 562.502,-57.083 572.035,-65.517C581.568,-73.95 590.918,-83.3 600.085,-93.567C609.252,-103.833 613.835,-110.067 613.835,-112.267C613.835,-118.867 643.535,-144.167 702.935,-188.167C722.002,-201.367 736.302,-220.433 745.835,-245.367C751.702,-260.767 754.635,-271.95 754.635,-278.917C754.635,-285.883 751.702,-295.967 745.835,-309.167Z" style="fill-rule:nonzero;"/>
        <path d="M1031.84,-490.667C1034.77,-496.533 1054.38,-498.55 1090.68,-496.717C1126.99,-494.883 1158.7,-491.033 1185.84,-485.167C1224.7,-476.367 1258.07,-470.5 1285.93,-467.567C1317.47,-464.633 1335.8,-460.967 1340.93,-456.567C1345.34,-452.9 1335.8,-437.867 1312.34,-411.467C1288.87,-384.333 1270.17,-357.933 1256.24,-332.267C1244.5,-311.733 1236.07,-288.45 1230.93,-262.417C1225.8,-236.383 1217.37,-174.233 1205.63,-75.967C1198.3,-9.967 1191.7,26.333 1185.84,32.933C1180.7,38.8 1179.6,43.2 1182.54,46.133C1186.2,49.8 1184.55,80.6 1177.59,138.533C1170.62,196.467 1164.57,228 1159.43,233.133C1152.84,240.467 1119.84,244.683 1060.43,245.783C1001.03,246.883 968.035,244.133 961.435,237.533C947.502,223.6 956.302,214.433 987.835,210.033L1048.34,206.733C1063.74,206.733 1075.65,206.55 1084.09,206.183C1092.52,205.817 1100.77,204.9 1108.84,203.433C1116.9,201.967 1122.4,200.317 1125.34,198.483C1128.27,196.65 1131.02,193.533 1133.59,189.133C1136.15,184.733 1137.62,180.15 1137.99,175.383C1138.35,170.617 1138.54,163.467 1138.54,153.933C1138.54,131.933 1141.1,109.567 1146.24,86.833C1152.1,56.033 1160.17,-5.933 1170.43,-99.067C1179.97,-183.4 1187.85,-239.5 1194.09,-267.367C1200.32,-295.233 1212.6,-327.5 1230.93,-364.167C1248.54,-399.367 1254.04,-419.533 1247.43,-424.667C1242.3,-428.333 1232.22,-432.183 1217.18,-436.217C1202.15,-440.25 1184.55,-443.55 1164.38,-446.117C1144.22,-448.683 1124.97,-450.333 1106.63,-451.067C1086.1,-451.8 1071.25,-453.45 1062.09,-456.017C1052.92,-458.583 1045.77,-463.167 1040.63,-469.767C1031.84,-480.033 1028.9,-487 1031.84,-490.667Z" style="fill-rule:nonzero;"/>
    </g>
</svg>
